<svg width="20" height="20" viewBox="0 0 20 20" fill="none" xmlns="http://www.w3.org/2000/svg" stroke="currentColor" stroke-width="1.5">
    <path d="M2 9.27259C2 11.2014 2.76622 13.0512 4.13009 14.4151C5.49397 15.7789 7.34378 16.5452 9.27259 16.5452C11.2014 16.5452 13.0512 15.7789 14.4151 14.4151C15.7789 13.0512 16.5452 11.2014 16.5452 9.27259C16.5452 7.34378 15.7789 5.49397 14.4151 4.13009C13.0512 2.76622 11.2014 2 9.27259 2C7.34378 2 5.49397 2.76622 4.13009 4.13009C2.76622 5.49397 2 7.34378 2 9.27259Z"/>
    <path d="M14.3633 14.3633L17.9996 17.9996"/>
    <g class="animation">
        <path d="M6 6L12 6" pathLength="100" stroke-dasharray="0 100" stroke-dashoffset="0">
            <animate attributeName="stroke-dasharray" values="0 100; 100 0; 0 100" keyTimes="0; 0.6; 1" dur="0.5s" repeatCount="indefinite"/>
            <animate attributeName="stroke-dashoffset" values="0; 0; -100" keyTimes="0; 0.6; 1" dur="0.5s" repeatCount="indefinite"/>
        </path>
        <path d="M4 9L14 9" pathLength="100" stroke-dasharray="0 100" stroke-dashoffset="0">
            <animate attributeName="stroke-dasharray" values="0 100; 100 0; 0 100" keyTimes="0; 0.6; 1" dur="0.5s" repeatCount="indefinite"/>
            <animate attributeName="stroke-dashoffset" values="0; 0; -100" keyTimes="0; 0.6; 1" dur="0.5s" repeatCount="indefinite"/>
        </path>
        <path d="M6 12L12 12" pathLength="100" stroke-dasharray="0 100" stroke-dashoffset="0">
            <animate attributeName="stroke-dasharray" values="0 100; 100 0; 0 100" keyTimes="0; 0.6; 1" dur="0.5s" repeatCount="indefinite"/>
            <animate attributeName="stroke-dashoffset" values="0; 0; -100" keyTimes="0; 0.6; 1" dur="0.5s" repeatCount="indefinite"/>
        </path>
    </g>
</svg>
