<svg width="720" height="400" viewBox="0 0 720 400" fill="none" xmlns="http://www.w3.org/2000/svg">
<path d="M5 5.00977V394.989C4.66584 395.236 4.33246 395.482 4 395.729V4.27051C4.33246 4.51715 4.66584 4.76351 5 5.00977Z" opacity="0.01" fill="currentColor"/>
<path d="M14 11.4531V388.546C13.6662 388.778 13.3323 389.01 13 389.242V10.7568C13.3323 10.9895 13.6662 11.2208 14 11.4531Z" opacity="0.0225" fill="currentColor"/>
<path d="M23 17.5518V382.447C22.6661 382.668 22.3325 382.888 22 383.108V16.8906C22.3325 17.1113 22.6661 17.3314 23 17.5518Z" opacity="0.0351" fill="currentColor"/>
<path d="M32 23.3457V376.653C31.6657 376.863 31.333 377.075 31 377.285V22.7139C31.333 22.9241 31.6657 23.1358 32 23.3457Z" opacity="0.0476" fill="currentColor"/>
<path d="M41 28.8633V371.136C40.6664 371.336 40.3325 371.534 40 371.734V28.2646C40.3325 28.4648 40.6664 28.6634 41 28.8633Z" opacity="0.0601" fill="currentColor"/>
<path d="M50 34.1357V365.863C49.666 366.055 49.3329 366.247 49 366.438V33.5605C49.3329 33.7522 49.666 33.9444 50 34.1357Z" opacity="0.0727" fill="currentColor"/>
<path d="M59 39.1846V360.814C58.666 360.998 58.333 361.182 58 361.366V38.6328C58.333 38.8165 58.666 39.0011 59 39.1846Z" opacity="0.0852" fill="currentColor"/>
<path d="M68 44.0254V355.974C67.6663 356.15 67.3327 356.325 67 356.501V43.498C67.3327 43.6743 67.6663 43.8495 68 44.0254Z" opacity="0.0977" fill="currentColor"/>
<path d="M77 48.6777V351.321C76.6664 351.49 76.3327 351.659 76 351.828V48.1709C76.3327 48.3403 76.6664 48.5086 77 48.6777Z" opacity="0.1103" fill="currentColor"/>
<path d="M86 53.1562V346.843C85.6664 347.006 85.3328 347.168 85 347.331V52.668C85.3328 52.8311 85.6664 52.9934 86 53.1562Z" opacity="0.1228" fill="currentColor"/>
<path d="M95 57.4707V342.528C94.6664 342.685 94.3328 342.842 94 342.999V57C94.3328 57.1573 94.6664 57.3137 95 57.4707Z" opacity="0.1353" fill="currentColor"/>
<path d="M104 61.6328V338.366C103.666 338.518 103.333 338.669 103 338.82V61.1787C103.333 61.3305 103.666 61.4813 104 61.6328Z" opacity="0.1478" fill="currentColor"/>
<path d="M113 65.6533V334.346C112.666 334.492 112.333 334.638 112 334.785V65.2139C112.333 65.3606 112.666 65.5069 113 65.6533Z" opacity="0.1604" fill="currentColor"/>
<path d="M122 69.5381V330.461C121.666 330.603 121.333 330.746 121 330.888V69.1113C121.333 69.2533 121.666 69.3964 122 69.5381Z" opacity="0.1729" fill="currentColor"/>
<path d="M131 73.2939V326.705C130.666 326.842 130.333 326.98 130 327.117V72.8818C130.333 73.0191 130.666 73.1569 131 73.2939Z" opacity="0.1854" fill="currentColor"/>
<path d="M140 76.9307V323.068C139.666 323.201 139.333 323.333 139 323.466V76.5332C139.333 76.6661 139.666 76.798 140 76.9307Z" opacity="0.198" fill="currentColor"/>
<path d="M149 80.4551V319.544C148.666 319.673 148.333 319.802 148 319.931V80.0684C148.333 80.1971 148.666 80.3265 149 80.4551Z" opacity="0.2105" fill="currentColor"/>
<path d="M158 83.8672V316.132C157.666 316.256 157.333 316.381 157 316.506V83.4932C157.333 83.618 157.666 83.7426 158 83.8672Z" opacity="0.223" fill="currentColor"/>
<path d="M167 87.1768V312.822C166.667 312.943 166.333 313.063 166 313.184V86.8154C166.333 86.9364 166.667 87.056 167 87.1768Z" opacity="0.2356" fill="currentColor"/>
<path d="M176 90.3867V309.612C175.666 309.73 175.333 309.847 175 309.965V90.0342C175.333 90.1516 175.666 90.2695 176 90.3867Z" opacity="0.2481" fill="currentColor"/>
<path d="M185 93.501V306.498C184.666 306.612 184.333 306.725 184 306.839V93.1602C184.333 93.2741 184.666 93.3873 185 93.501Z" opacity="0.2606" fill="currentColor"/>
<path d="M194 96.5244V303.475C193.666 303.585 193.333 303.696 193 303.807V96.1924C193.333 96.303 193.666 96.414 194 96.5244Z" opacity="0.2732" fill="currentColor"/>
<path d="M203 99.459V300.54C202.666 300.647 202.333 300.754 202 300.861V99.1377C202.333 99.2451 202.666 99.3518 203 99.459Z" opacity="0.2857" fill="currentColor"/>
<path d="M212 102.309V297.69C211.666 297.795 211.333 297.899 211 298.003V101.996C211.333 102.1 211.666 102.205 212 102.309Z" opacity="0.2982" fill="currentColor"/>
<path d="M221 105.078V294.921C220.666 295.022 220.333 295.124 220 295.226V104.773C220.333 104.875 220.666 104.977 221 105.078Z" opacity="0.3108" fill="currentColor"/>
<path d="M230 107.766V292.233C229.667 292.332 229.333 292.429 229 292.527V107.472C229.333 107.57 229.667 107.667 230 107.766Z" opacity="0.3233" fill="currentColor"/>
<path d="M239 110.378V289.621C238.666 289.717 238.333 289.813 238 289.908V110.091C238.333 110.186 238.666 110.283 239 110.378Z" opacity="0.3358" fill="currentColor"/>
<path d="M248 112.917V287.082C247.666 287.175 247.333 287.268 247 287.361V112.638C247.333 112.731 247.666 112.824 248 112.917Z" opacity="0.3484" fill="currentColor"/>
<path d="M257 115.382V284.617C256.667 284.707 256.333 284.796 256 284.887V115.112C256.333 115.203 256.667 115.292 257 115.382Z" opacity="0.3609" fill="currentColor"/>
<path d="M266 117.777V282.222C265.666 282.309 265.333 282.397 265 282.484V117.515C265.333 117.602 265.666 117.69 266 117.777Z" opacity="0.3734" fill="currentColor"/>
<path d="M275 120.105V279.894C274.666 279.979 274.333 280.064 274 280.149V119.85C274.333 119.935 274.666 120.02 275 120.105Z" opacity="0.3859" fill="currentColor"/>
<path d="M284 122.367V277.632C283.666 277.714 283.333 277.798 283 277.881V122.118C283.333 122.201 283.666 122.285 284 122.367Z" opacity="0.3985" fill="currentColor"/>
<path d="M293 124.564V275.435C292.667 275.515 292.333 275.595 292 275.676V124.323C292.333 124.404 292.666 124.484 293 124.564Z" opacity="0.411" fill="currentColor"/>
<path d="M302 126.697V273.302C301.667 273.38 301.333 273.457 301 273.535V126.464C301.333 126.542 301.667 126.619 302 126.697Z" opacity="0.4235" fill="currentColor"/>
<path d="M311 128.769V271.23C310.667 271.306 310.333 271.381 310 271.457V128.542C310.333 128.618 310.667 128.693 311 128.769Z" opacity="0.4361" fill="currentColor"/>
<path d="M320 130.781V269.218C319.667 269.291 319.333 269.365 319 269.438V130.561C319.333 130.634 319.667 130.708 320 130.781Z" opacity="0.4486" fill="currentColor"/>
<path d="M329 132.735V267.264C328.666 267.335 328.333 267.407 328 267.479V132.521C328.333 132.592 328.666 132.664 329 132.735Z" opacity="0.4611" fill="currentColor"/>
<path d="M338 134.631V265.368C337.666 265.437 337.333 265.508 337 265.577V134.422C337.333 134.491 337.666 134.562 338 134.631Z" opacity="0.4737" fill="currentColor"/>
<path d="M347 136.471V263.528C346.666 263.595 346.333 263.664 346 263.731V136.268C346.333 136.335 346.666 136.404 347 136.471Z" opacity="0.4862" fill="currentColor"/>
<path d="M356 138.255V261.744C355.666 261.809 355.333 261.876 355 261.941V138.058C355.333 138.123 355.666 138.19 356 138.255Z" opacity="0.4987" fill="currentColor"/>
<path d="M365 139.984V260.015C364.667 260.078 364.333 260.141 364 260.204V139.795C364.333 139.858 364.667 139.921 365 139.984Z" opacity="0.5113" fill="currentColor"/>
<path d="M374 141.66V258.339C373.666 258.4 373.333 258.461 373 258.522V141.477C373.333 141.538 373.667 141.599 374 141.66Z" opacity="0.5238" fill="currentColor"/>
<path d="M383 143.284V256.715C382.666 256.774 382.333 256.833 382 256.893V143.106C382.333 143.166 382.667 143.225 383 143.284Z" opacity="0.5363" fill="currentColor"/>
<path d="M392 144.856V255.143C391.666 255.2 391.333 255.257 391 255.314V144.685C391.333 144.742 391.667 144.799 392 144.856Z" opacity="0.5489" fill="currentColor"/>
<path d="M401 146.379V253.62C400.667 253.676 400.333 253.731 400 253.787V146.212C400.333 146.268 400.667 146.323 401 146.379Z" opacity="0.5614" fill="currentColor"/>
<path d="M410 147.852V252.147C409.666 252.201 409.333 252.255 409 252.309V147.69C409.333 147.744 409.667 147.798 410 147.852Z" opacity="0.5739" fill="currentColor"/>
<path d="M419 149.273V250.726C418.667 250.777 418.333 250.829 418 250.881V149.118C418.333 149.17 418.667 149.222 419 149.273Z" opacity="0.5865" fill="currentColor"/>
<path d="M428 150.649V249.35C427.666 249.4 427.333 249.451 427 249.501V150.498C427.333 150.548 427.667 150.599 428 150.649Z" opacity="0.599" fill="currentColor"/>
<path d="M437 151.977V248.022C436.667 248.071 436.333 248.12 436 248.168V151.831C436.333 151.88 436.667 151.928 437 151.977Z" opacity="0.6115" fill="currentColor"/>
<path d="M446 153.256V246.743C445.667 246.79 445.333 246.837 445 246.884V153.115C445.333 153.162 445.667 153.209 446 153.256Z" opacity="0.6241" fill="currentColor"/>
<path d="M455 154.489V245.51C454.667 245.555 454.333 245.6 454 245.646V154.354C454.333 154.399 454.667 154.444 455 154.489Z" opacity="0.6366" fill="currentColor"/>
<path d="M464 155.677V244.322C463.667 244.365 463.333 244.409 463 244.452V155.547C463.333 155.59 463.667 155.634 464 155.677Z" opacity="0.6491" fill="currentColor"/>
<path d="M473 156.819V243.18C472.667 243.221 472.333 243.263 472 243.305V156.694C472.333 156.736 472.667 156.778 473 156.819Z" opacity="0.6616" fill="currentColor"/>
<path d="M482 157.917V242.082C481.667 242.122 481.333 242.162 481 242.202V157.797C481.333 157.837 481.667 157.877 482 157.917Z" opacity="0.6742" fill="currentColor"/>
<path d="M491 158.97V241.029C490.667 241.068 490.333 241.105 490 241.144V158.855C490.333 158.894 490.667 158.932 491 158.97Z" opacity="0.6867" fill="currentColor"/>
<path d="M500 159.979V240.02C499.667 240.056 499.333 240.092 499 240.129V159.87C499.333 159.907 499.667 159.943 500 159.979Z" opacity="0.6992" fill="currentColor"/>
<path d="M509 160.947V239.052C508.667 239.087 508.333 239.121 508 239.156V160.843C508.333 160.878 508.667 160.912 509 160.947Z" opacity="0.7118" fill="currentColor"/>
<path d="M518 161.871V238.128C517.667 238.161 517.333 238.195 517 238.229V161.771C517.333 161.804 517.667 161.838 518 161.871Z" opacity="0.7243" fill="currentColor"/>
<path d="M527 162.753V237.246C526.667 237.278 526.333 237.311 526 237.343V162.656C526.333 162.688 526.667 162.721 527 162.753Z" opacity="0.7368" fill="currentColor"/>
<path d="M536 163.591V236.408C535.667 236.439 535.333 236.47 535 236.5V163.499C535.333 163.529 535.667 163.561 536 163.591Z" opacity="0.7494" fill="currentColor"/>
<path d="M545 164.388V235.611C544.667 235.64 544.333 235.669 544 235.698V164.301C544.333 164.33 544.667 164.359 545 164.388Z" opacity="0.7619" fill="currentColor"/>
<path d="M554 165.144V234.855C553.667 234.883 553.333 234.91 553 234.938V165.062C553.333 165.089 553.667 165.116 554 165.144Z" opacity="0.7744" fill="currentColor"/>
<path d="M563 165.858V234.141C562.667 234.166 562.333 234.192 562 234.218V165.781C562.333 165.807 562.667 165.833 563 165.858Z" opacity="0.787" fill="currentColor"/>
<path d="M572 166.533V233.466C571.667 233.49 571.333 233.514 571 233.538V166.461C571.333 166.485 571.667 166.509 572 166.533Z" opacity="0.7995" fill="currentColor"/>
<path d="M581 167.167V232.832C580.667 232.855 580.333 232.878 580 232.901V167.098C580.333 167.121 580.667 167.144 581 167.167Z" opacity="0.812" fill="currentColor"/>
<path d="M590 167.76V232.239C589.667 232.261 589.333 232.282 589 232.304V167.695C589.333 167.717 589.667 167.739 590 167.76Z" opacity="0.8246" fill="currentColor"/>
<path d="M599 168.312V231.687C598.667 231.706 598.333 231.726 598 231.746V168.253C598.333 168.273 598.667 168.293 599 168.312Z" opacity="0.8371" fill="currentColor"/>
<path d="M608 168.827V231.172C607.667 231.19 607.333 231.208 607 231.227V168.772C607.333 168.791 607.667 168.809 608 168.827Z" opacity="0.8496" fill="currentColor"/>
<path d="M617 169.303V230.696C616.667 230.713 616.333 230.73 616 230.747V169.252C616.333 169.269 616.667 169.286 617 169.303Z" opacity="0.8622" fill="currentColor"/>
<path d="M626 169.738V230.261C625.667 230.276 625.333 230.292 625 230.308V169.691C625.333 169.707 625.667 169.723 626 169.738Z" opacity="0.8747" fill="currentColor"/>
<path d="M635 170.134V229.865C634.667 229.879 634.333 229.893 634 229.907V170.092C634.333 170.106 634.667 170.12 635 170.134Z" opacity="0.8872" fill="currentColor"/>
<path d="M644 170.491V229.508C643.667 229.52 643.333 229.532 643 229.545V170.454C643.333 170.467 643.667 170.479 644 170.491Z" opacity="0.8997" fill="currentColor"/>
<path d="M653 170.812V229.188C652.667 229.199 652.333 229.208 652 229.22V170.779C652.333 170.791 652.667 170.8 653 170.812Z" opacity="0.9123" fill="currentColor"/>
<path d="M662 171.094V228.905C661.667 228.915 661.333 228.926 661 228.936V171.063C661.333 171.073 661.667 171.084 662 171.094Z" opacity="0.9248" fill="currentColor"/>
<path d="M671 171.335V228.664C670.667 228.672 670.333 228.681 670 228.689V171.31C670.333 171.318 670.667 171.327 671 171.335Z" opacity="0.9373" fill="currentColor"/>
<path d="M680 171.54V228.459C679.667 228.466 679.333 228.473 679 228.48V171.519C679.333 171.526 679.667 171.533 680 171.54Z" opacity="0.9499" fill="currentColor"/>
<path d="M689 171.707V228.292C688.667 228.297 688.333 228.302 688 228.308V171.691C688.333 171.697 688.667 171.702 689 171.707Z" opacity="0.9624" fill="currentColor"/>
<path d="M698 171.837V228.162C697.667 228.166 697.333 228.172 697 228.176V171.823C697.333 171.827 697.667 171.833 698 171.837Z" opacity="0.9749" fill="currentColor"/>
<path d="M707 171.928V228.071C706.667 228.074 706.333 228.077 706 228.08V171.919C706.333 171.922 706.667 171.925 707 171.928Z" opacity="0.9875" fill="currentColor"/>
<path d="M716 171.981V228.018C715.667 228.019 715.333 228.02 715 228.021V171.978C715.333 171.979 715.667 171.98 716 171.981Z" opacity="1.0" fill="currentColor"/>
</svg>
