<svg width="1000" height="1000" viewBox="0 0 1000 1000" fill="none" xmlns="http://www.w3.org/2000/svg">
    <rect width="1000" height="1000" fill="currentColor"/>
    <path d="M501.013 125.001C501.343 125.003 501.673 125.007 502.002 125.01C502.564 125.015 503.126 125.021 503.687 125.03C503.786 125.032 503.884 125.034 503.983 125.036C504.699 125.049 505.415 125.066 506.131 125.086C506.189 125.088 506.246 125.089 506.303 125.091C567.909 126.872 627.536 154.949 667.956 204.708L667.626 204.898C722.487 272.465 733.116 369.52 687.005 449.386L571.878 648.79L604.284 704.917C629.616 748.793 685.721 763.827 729.597 738.495C773.473 713.163 788.507 657.058 763.175 613.182L745.967 583.376L853.786 521.127L870.994 550.933C930.705 654.356 895.269 786.602 791.846 846.314C690.417 904.874 561.265 871.921 499.999 773.072C438.732 871.92 309.582 904.874 208.153 846.315C106.346 787.536 70.4185 658.47 126.277 555.801L129.005 550.933L142.336 527.841L250.156 590.09L236.825 613.182C211.493 657.058 226.526 713.163 270.402 738.495C314.278 763.827 370.383 748.794 395.715 704.918L428.12 648.79L312.994 449.385C268.268 371.918 276.924 278.279 327.549 211.065L327.218 210.873C368.101 156.641 431.049 126.234 495.957 125.036C495.97 125.036 495.983 125.036 495.996 125.035C496.633 125.024 497.27 125.016 497.907 125.01C498.111 125.008 498.314 125.006 498.518 125.004C499.003 125.001 499.487 125 499.972 125C500.319 125 500.666 125 501.013 125.001ZM499.647 249.519C484.255 249.607 468.674 253.575 454.39 261.822C410.514 287.155 395.481 343.259 420.813 387.136L500 524.291L579.186 387.136C604.518 343.26 589.485 287.156 545.609 261.823C531.106 253.45 515.268 249.488 499.647 249.519Z" fill="white"/>
</svg>
