<svg width="1000" height="1000" viewBox="0 0 1000 1000" fill="none" xmlns="http://www.w3.org/2000/svg">
<rect width="1000" height="1000" fill="currentColor"/>
<path d="M500.912 182.001C501.146 182.002 501.38 182.005 501.614 182.007C502.122 182.011 502.629 182.018 503.136 182.026C503.209 182.028 503.282 182.029 503.355 182.03C556.303 182.987 607.721 206.865 642.434 249.599L642.156 249.758C688.683 307.059 697.698 389.368 658.593 457.1L560.957 626.208L588.438 673.807C609.922 711.017 657.503 723.765 694.713 702.282C731.923 680.799 744.672 633.219 723.188 596.009L708.595 570.732L800.032 517.941L814.626 543.218C865.265 630.927 835.214 743.081 747.504 793.72C661.484 843.383 551.956 815.433 499.999 731.601C448.042 815.433 338.514 843.384 252.494 793.721C166.155 743.873 135.686 634.416 183.058 547.346L185.372 543.218L196.678 523.634L288.115 576.426L276.81 596.01C255.327 633.22 268.076 680.8 305.286 702.283C342.496 723.766 390.076 711.017 411.56 673.808L439.041 626.208L341.405 457.099C303.475 391.402 310.818 311.991 353.751 254.988L353.472 254.827C388.489 208.375 442.595 182.535 498.222 182.009C498.404 182.007 498.587 182.004 498.77 182.003C499.142 182.001 499.515 182 499.888 182C500.229 182 500.571 181.999 500.912 182.001ZM500.368 287.6C487.098 287.562 473.64 290.921 461.319 298.034C424.11 319.517 411.36 367.098 432.843 404.308L499.999 520.625L567.155 404.308C588.638 367.098 575.889 319.517 538.68 298.034C526.587 291.053 513.399 287.686 500.368 287.6Z" fill="white"/>
</svg>
